<mxfile host="app.diagrams.net" modified="2022-01-24T00:46:12.011Z" agent="5.0 (Windows NT 10.0; Win64; x64) AppleWebKit/537.36 (KHTML, like Gecko) Chrome/97.0.4692.99 Safari/537.36" etag="gUuw4c8-XsPIYpYU9WFF" version="16.4.5" type="github">
  <diagram id="R2lEEEUBdFMjLlhIrx00" name="Page-1">
    <mxGraphModel dx="2352" dy="802" grid="1" gridSize="10" guides="1" tooltips="1" connect="1" arrows="1" fold="1" page="1" pageScale="1" pageWidth="850" pageHeight="1100" math="0" shadow="0" extFonts="Permanent Marker^https://fonts.googleapis.com/css?family=Permanent+Marker">
      <root>
        <mxCell id="0" />
        <mxCell id="1" parent="0" />
        <mxCell id="A8UlO8RGgryLHVH7YJOI-1" value="Company" style="rounded=0;whiteSpace=wrap;html=1;" vertex="1" parent="1">
          <mxGeometry x="20" y="90" width="60" height="30" as="geometry" />
        </mxCell>
        <mxCell id="A8UlO8RGgryLHVH7YJOI-2" value="Owns" style="rhombus;whiteSpace=wrap;html=1;" vertex="1" parent="1">
          <mxGeometry x="130" y="82.5" width="40" height="45" as="geometry" />
        </mxCell>
        <mxCell id="A8UlO8RGgryLHVH7YJOI-3" value="Lot" style="rounded=0;whiteSpace=wrap;html=1;" vertex="1" parent="1">
          <mxGeometry x="230" y="90" width="70" height="30" as="geometry" />
        </mxCell>
        <mxCell id="A8UlO8RGgryLHVH7YJOI-4" value="&lt;u&gt;ID&lt;/u&gt;" style="ellipse;whiteSpace=wrap;html=1;" vertex="1" parent="1">
          <mxGeometry x="245" y="20" width="40" height="30" as="geometry" />
        </mxCell>
        <mxCell id="A8UlO8RGgryLHVH7YJOI-6" value="Production Date" style="ellipse;whiteSpace=wrap;html=1;" vertex="1" parent="1">
          <mxGeometry x="350" y="90" width="100" height="30" as="geometry" />
        </mxCell>
        <mxCell id="A8UlO8RGgryLHVH7YJOI-7" value="Expiry Date" style="ellipse;whiteSpace=wrap;html=1;" vertex="1" parent="1">
          <mxGeometry x="380" y="160" width="70" height="40" as="geometry" />
        </mxCell>
        <mxCell id="A8UlO8RGgryLHVH7YJOI-8" value="Number of Doses" style="ellipse;whiteSpace=wrap;html=1;" vertex="1" parent="1">
          <mxGeometry x="320" y="220" width="70" height="40" as="geometry" />
        </mxCell>
        <mxCell id="A8UlO8RGgryLHVH7YJOI-9" value="Vaccination Site" style="rounded=0;whiteSpace=wrap;html=1;" vertex="1" parent="1">
          <mxGeometry x="150" y="360" width="95" height="20" as="geometry" />
        </mxCell>
        <mxCell id="A8UlO8RGgryLHVH7YJOI-10" value="OHIP Number" style="ellipse;whiteSpace=wrap;html=1;" vertex="1" parent="1">
          <mxGeometry x="192.5" y="690" width="105" height="30" as="geometry" />
        </mxCell>
        <mxCell id="A8UlO8RGgryLHVH7YJOI-11" value="Name" style="ellipse;whiteSpace=wrap;html=1;" vertex="1" parent="1">
          <mxGeometry x="142.5" y="640" width="50" height="30" as="geometry" />
        </mxCell>
        <mxCell id="A8UlO8RGgryLHVH7YJOI-12" value="Phone Number" style="ellipse;whiteSpace=wrap;html=1;" vertex="1" parent="1">
          <mxGeometry x="320.5" y="680" width="90" height="30" as="geometry" />
        </mxCell>
        <mxCell id="A8UlO8RGgryLHVH7YJOI-18" value="Spouse OHIP Number" style="ellipse;whiteSpace=wrap;html=1;" vertex="1" parent="1">
          <mxGeometry x="305.5" y="495" width="105" height="30" as="geometry" />
        </mxCell>
        <mxCell id="A8UlO8RGgryLHVH7YJOI-20" value="Spouse Name" style="ellipse;whiteSpace=wrap;html=1;" vertex="1" parent="1">
          <mxGeometry x="420" y="630" width="70" height="30" as="geometry" />
        </mxCell>
        <mxCell id="A8UlO8RGgryLHVH7YJOI-21" value="Spouse Phone Number" style="ellipse;whiteSpace=wrap;html=1;" vertex="1" parent="1">
          <mxGeometry x="391.75" y="560" width="108.25" height="30" as="geometry" />
        </mxCell>
        <mxCell id="A8UlO8RGgryLHVH7YJOI-22" value="&lt;u&gt;Name&lt;/u&gt;" style="ellipse;whiteSpace=wrap;html=1;strokeWidth=1;" vertex="1" parent="1">
          <mxGeometry y="335" width="80" height="30" as="geometry" />
        </mxCell>
        <mxCell id="A8UlO8RGgryLHVH7YJOI-24" value="Name" style="ellipse;whiteSpace=wrap;html=1;strokeWidth=1;" vertex="1" parent="1">
          <mxGeometry x="500" y="390" width="80" height="30" as="geometry" />
        </mxCell>
        <mxCell id="A8UlO8RGgryLHVH7YJOI-25" value="&lt;u&gt;Healthcare ID&lt;/u&gt;" style="ellipse;whiteSpace=wrap;html=1;strokeWidth=1;" vertex="1" parent="1">
          <mxGeometry x="-130" y="570" width="90" height="30" as="geometry" />
        </mxCell>
        <mxCell id="A8UlO8RGgryLHVH7YJOI-26" value="Credentials" style="ellipse;whiteSpace=wrap;html=1;strokeWidth=1;" vertex="1" parent="1">
          <mxGeometry x="-125" y="620" width="80" height="40" as="geometry" />
        </mxCell>
        <mxCell id="A8UlO8RGgryLHVH7YJOI-29" value="1" style="endArrow=none;html=1;rounded=0;exitX=1;exitY=0.5;exitDx=0;exitDy=0;entryX=0;entryY=0.5;entryDx=0;entryDy=0;" edge="1" parent="1" source="A8UlO8RGgryLHVH7YJOI-1" target="A8UlO8RGgryLHVH7YJOI-2">
          <mxGeometry width="50" height="50" relative="1" as="geometry">
            <mxPoint x="190" y="340" as="sourcePoint" />
            <mxPoint x="240" y="290" as="targetPoint" />
          </mxGeometry>
        </mxCell>
        <mxCell id="A8UlO8RGgryLHVH7YJOI-30" value="M" style="endArrow=none;html=1;rounded=0;entryX=1;entryY=0.5;entryDx=0;entryDy=0;exitX=0;exitY=0.5;exitDx=0;exitDy=0;" edge="1" parent="1" source="A8UlO8RGgryLHVH7YJOI-3" target="A8UlO8RGgryLHVH7YJOI-2">
          <mxGeometry width="50" height="50" relative="1" as="geometry">
            <mxPoint x="190" y="340" as="sourcePoint" />
            <mxPoint x="240" y="290" as="targetPoint" />
          </mxGeometry>
        </mxCell>
        <mxCell id="A8UlO8RGgryLHVH7YJOI-31" value="&lt;u&gt;Name&lt;/u&gt;" style="ellipse;whiteSpace=wrap;html=1;strokeWidth=1;" vertex="1" parent="1">
          <mxGeometry x="-50" y="170" width="80" height="30" as="geometry" />
        </mxCell>
        <mxCell id="A8UlO8RGgryLHVH7YJOI-32" value="address" style="ellipse;whiteSpace=wrap;html=1;strokeWidth=1;" vertex="1" parent="1">
          <mxGeometry x="75" y="170" width="70" height="30" as="geometry" />
        </mxCell>
        <mxCell id="A8UlO8RGgryLHVH7YJOI-33" value="" style="endArrow=none;html=1;rounded=0;entryX=0;entryY=1;entryDx=0;entryDy=0;exitX=0.5;exitY=0;exitDx=0;exitDy=0;" edge="1" parent="1" source="A8UlO8RGgryLHVH7YJOI-31" target="A8UlO8RGgryLHVH7YJOI-1">
          <mxGeometry width="50" height="50" relative="1" as="geometry">
            <mxPoint x="100" y="210" as="sourcePoint" />
            <mxPoint x="150" y="160" as="targetPoint" />
          </mxGeometry>
        </mxCell>
        <mxCell id="A8UlO8RGgryLHVH7YJOI-34" value="" style="endArrow=none;html=1;rounded=0;entryX=1;entryY=1;entryDx=0;entryDy=0;exitX=0.5;exitY=0;exitDx=0;exitDy=0;" edge="1" parent="1" source="A8UlO8RGgryLHVH7YJOI-32" target="A8UlO8RGgryLHVH7YJOI-1">
          <mxGeometry width="50" height="50" relative="1" as="geometry">
            <mxPoint x="100" y="210" as="sourcePoint" />
            <mxPoint x="150" y="160" as="targetPoint" />
          </mxGeometry>
        </mxCell>
        <mxCell id="A8UlO8RGgryLHVH7YJOI-35" value="" style="endArrow=none;html=1;rounded=0;entryX=0.5;entryY=1;entryDx=0;entryDy=0;exitX=0.5;exitY=0;exitDx=0;exitDy=0;" edge="1" parent="1" source="A8UlO8RGgryLHVH7YJOI-3" target="A8UlO8RGgryLHVH7YJOI-4">
          <mxGeometry width="50" height="50" relative="1" as="geometry">
            <mxPoint x="220" y="230" as="sourcePoint" />
            <mxPoint x="270" y="180" as="targetPoint" />
          </mxGeometry>
        </mxCell>
        <mxCell id="A8UlO8RGgryLHVH7YJOI-36" value="" style="endArrow=none;html=1;rounded=0;entryX=0;entryY=0.5;entryDx=0;entryDy=0;exitX=1;exitY=0.5;exitDx=0;exitDy=0;" edge="1" parent="1" source="A8UlO8RGgryLHVH7YJOI-3" target="A8UlO8RGgryLHVH7YJOI-6">
          <mxGeometry width="50" height="50" relative="1" as="geometry">
            <mxPoint x="290" y="210" as="sourcePoint" />
            <mxPoint x="340" y="160" as="targetPoint" />
          </mxGeometry>
        </mxCell>
        <mxCell id="A8UlO8RGgryLHVH7YJOI-37" value="" style="endArrow=none;html=1;rounded=0;entryX=0;entryY=0.5;entryDx=0;entryDy=0;exitX=1;exitY=1;exitDx=0;exitDy=0;" edge="1" parent="1" source="A8UlO8RGgryLHVH7YJOI-3" target="A8UlO8RGgryLHVH7YJOI-7">
          <mxGeometry width="50" height="50" relative="1" as="geometry">
            <mxPoint x="290" y="210" as="sourcePoint" />
            <mxPoint x="340" y="160" as="targetPoint" />
          </mxGeometry>
        </mxCell>
        <mxCell id="A8UlO8RGgryLHVH7YJOI-38" value="" style="endArrow=none;html=1;rounded=0;exitX=0.5;exitY=0;exitDx=0;exitDy=0;entryX=0.5;entryY=1;entryDx=0;entryDy=0;" edge="1" parent="1" source="A8UlO8RGgryLHVH7YJOI-8" target="A8UlO8RGgryLHVH7YJOI-3">
          <mxGeometry width="50" height="50" relative="1" as="geometry">
            <mxPoint x="290" y="210" as="sourcePoint" />
            <mxPoint x="340" y="160" as="targetPoint" />
          </mxGeometry>
        </mxCell>
        <mxCell id="A8UlO8RGgryLHVH7YJOI-40" value="Address" style="ellipse;whiteSpace=wrap;html=1;strokeWidth=1;" vertex="1" parent="1">
          <mxGeometry y="390" width="80" height="30" as="geometry" />
        </mxCell>
        <mxCell id="A8UlO8RGgryLHVH7YJOI-43" value="Vaccination Dates" style="ellipse;whiteSpace=wrap;html=1;shadow=0;strokeWidth=1;" vertex="1" parent="1">
          <mxGeometry y="290" width="90" height="30" as="geometry" />
        </mxCell>
        <mxCell id="A8UlO8RGgryLHVH7YJOI-44" value="" style="endArrow=none;html=1;rounded=0;entryX=0.25;entryY=1;entryDx=0;entryDy=0;exitX=0.5;exitY=0;exitDx=0;exitDy=0;startArrow=none;" edge="1" parent="1" source="A8UlO8RGgryLHVH7YJOI-51" target="A8UlO8RGgryLHVH7YJOI-3">
          <mxGeometry width="50" height="50" relative="1" as="geometry">
            <mxPoint x="240" y="350" as="sourcePoint" />
            <mxPoint x="290" y="300" as="targetPoint" />
          </mxGeometry>
        </mxCell>
        <mxCell id="A8UlO8RGgryLHVH7YJOI-46" value="M" style="edgeLabel;html=1;align=center;verticalAlign=middle;resizable=0;points=[];" vertex="1" connectable="0" parent="A8UlO8RGgryLHVH7YJOI-44">
          <mxGeometry x="0.4947" relative="1" as="geometry">
            <mxPoint as="offset" />
          </mxGeometry>
        </mxCell>
        <mxCell id="A8UlO8RGgryLHVH7YJOI-48" value="" style="endArrow=none;html=1;rounded=0;exitX=0.5;exitY=0;exitDx=0;exitDy=0;entryX=0.5;entryY=1;entryDx=0;entryDy=0;" edge="1" parent="1" source="A8UlO8RGgryLHVH7YJOI-9" target="A8UlO8RGgryLHVH7YJOI-43">
          <mxGeometry width="50" height="50" relative="1" as="geometry">
            <mxPoint x="120" y="330" as="sourcePoint" />
            <mxPoint x="170" y="280" as="targetPoint" />
          </mxGeometry>
        </mxCell>
        <mxCell id="A8UlO8RGgryLHVH7YJOI-49" value="" style="endArrow=none;html=1;rounded=0;exitX=0;exitY=0;exitDx=0;exitDy=0;entryX=1;entryY=0.5;entryDx=0;entryDy=0;" edge="1" parent="1" source="A8UlO8RGgryLHVH7YJOI-9" target="A8UlO8RGgryLHVH7YJOI-22">
          <mxGeometry width="50" height="50" relative="1" as="geometry">
            <mxPoint x="120" y="330" as="sourcePoint" />
            <mxPoint x="170" y="280" as="targetPoint" />
          </mxGeometry>
        </mxCell>
        <mxCell id="A8UlO8RGgryLHVH7YJOI-50" value="" style="endArrow=none;html=1;rounded=0;exitX=0.5;exitY=0;exitDx=0;exitDy=0;entryX=0;entryY=1;entryDx=0;entryDy=0;" edge="1" parent="1" source="A8UlO8RGgryLHVH7YJOI-40" target="A8UlO8RGgryLHVH7YJOI-9">
          <mxGeometry width="50" height="50" relative="1" as="geometry">
            <mxPoint x="120" y="330" as="sourcePoint" />
            <mxPoint x="170" y="280" as="targetPoint" />
          </mxGeometry>
        </mxCell>
        <mxCell id="A8UlO8RGgryLHVH7YJOI-51" value="Supplies" style="rhombus;whiteSpace=wrap;html=1;shadow=0;strokeWidth=1;" vertex="1" parent="1">
          <mxGeometry x="200" y="220" width="90" height="70" as="geometry" />
        </mxCell>
        <mxCell id="A8UlO8RGgryLHVH7YJOI-52" value="" style="endArrow=none;html=1;rounded=0;entryX=0.5;entryY=1;entryDx=0;entryDy=0;exitX=1;exitY=0;exitDx=0;exitDy=0;" edge="1" parent="1" source="A8UlO8RGgryLHVH7YJOI-9" target="A8UlO8RGgryLHVH7YJOI-51">
          <mxGeometry width="50" height="50" relative="1" as="geometry">
            <mxPoint x="197.5" y="339.9999999999999" as="sourcePoint" />
            <mxPoint x="247.5" y="120" as="targetPoint" />
          </mxGeometry>
        </mxCell>
        <mxCell id="A8UlO8RGgryLHVH7YJOI-54" value="M" style="edgeLabel;html=1;align=center;verticalAlign=middle;resizable=0;points=[];" vertex="1" connectable="0" parent="A8UlO8RGgryLHVH7YJOI-52">
          <mxGeometry x="-0.4123" y="-1" relative="1" as="geometry">
            <mxPoint as="offset" />
          </mxGeometry>
        </mxCell>
        <mxCell id="A8UlO8RGgryLHVH7YJOI-55" value="Doctor" style="rounded=0;whiteSpace=wrap;html=1;shadow=0;strokeWidth=1;" vertex="1" parent="1">
          <mxGeometry x="-10" y="520" width="60" height="20" as="geometry" />
        </mxCell>
        <mxCell id="A8UlO8RGgryLHVH7YJOI-56" value="Nurse" style="rounded=0;whiteSpace=wrap;html=1;shadow=0;strokeWidth=1;" vertex="1" parent="1">
          <mxGeometry x="410.5" y="425" width="52.5" height="20" as="geometry" />
        </mxCell>
        <mxCell id="A8UlO8RGgryLHVH7YJOI-57" value="M" style="endArrow=none;html=1;rounded=0;exitX=1;exitY=0;exitDx=0;exitDy=0;entryX=0.25;entryY=1;entryDx=0;entryDy=0;startArrow=none;" edge="1" parent="1" source="A8UlO8RGgryLHVH7YJOI-59" target="A8UlO8RGgryLHVH7YJOI-9">
          <mxGeometry width="50" height="50" relative="1" as="geometry">
            <mxPoint x="170" y="550" as="sourcePoint" />
            <mxPoint x="220" y="500" as="targetPoint" />
          </mxGeometry>
        </mxCell>
        <mxCell id="A8UlO8RGgryLHVH7YJOI-59" value="Employs" style="rhombus;whiteSpace=wrap;html=1;shadow=0;strokeWidth=1;" vertex="1" parent="1">
          <mxGeometry x="85" y="435" width="60" height="50" as="geometry" />
        </mxCell>
        <mxCell id="A8UlO8RGgryLHVH7YJOI-60" value="M" style="endArrow=none;html=1;rounded=0;exitX=1;exitY=0;exitDx=0;exitDy=0;entryX=0;entryY=1;entryDx=0;entryDy=0;" edge="1" parent="1" source="A8UlO8RGgryLHVH7YJOI-55" target="A8UlO8RGgryLHVH7YJOI-59">
          <mxGeometry width="50" height="50" relative="1" as="geometry">
            <mxPoint x="50" y="520" as="sourcePoint" />
            <mxPoint x="70" y="480" as="targetPoint" />
          </mxGeometry>
        </mxCell>
        <mxCell id="A8UlO8RGgryLHVH7YJOI-61" value="M" style="endArrow=none;html=1;rounded=0;entryX=1;entryY=1;entryDx=0;entryDy=0;exitX=0;exitY=0;exitDx=0;exitDy=0;" edge="1" parent="1" source="A8UlO8RGgryLHVH7YJOI-62" target="A8UlO8RGgryLHVH7YJOI-9">
          <mxGeometry width="50" height="50" relative="1" as="geometry">
            <mxPoint x="245" y="420" as="sourcePoint" />
            <mxPoint x="260" y="390" as="targetPoint" />
          </mxGeometry>
        </mxCell>
        <mxCell id="A8UlO8RGgryLHVH7YJOI-62" value="Employs" style="rhombus;whiteSpace=wrap;html=1;shadow=0;strokeWidth=1;" vertex="1" parent="1">
          <mxGeometry x="300" y="395" width="59.5" height="50" as="geometry" />
        </mxCell>
        <mxCell id="A8UlO8RGgryLHVH7YJOI-63" value="M" style="endArrow=none;html=1;rounded=0;exitX=0;exitY=0.5;exitDx=0;exitDy=0;entryX=1;entryY=0.5;entryDx=0;entryDy=0;shape=link;" edge="1" parent="1" source="A8UlO8RGgryLHVH7YJOI-56" target="A8UlO8RGgryLHVH7YJOI-62">
          <mxGeometry width="50" height="50" relative="1" as="geometry">
            <mxPoint x="372.5" y="295" as="sourcePoint" />
            <mxPoint x="400" y="350" as="targetPoint" />
          </mxGeometry>
        </mxCell>
        <mxCell id="A8UlO8RGgryLHVH7YJOI-65" value="" style="endArrow=none;html=1;rounded=0;exitX=1;exitY=0.5;exitDx=0;exitDy=0;entryX=0.5;entryY=1;entryDx=0;entryDy=0;" edge="1" parent="1" source="A8UlO8RGgryLHVH7YJOI-25" target="A8UlO8RGgryLHVH7YJOI-55">
          <mxGeometry width="50" height="50" relative="1" as="geometry">
            <mxPoint x="10" y="530" as="sourcePoint" />
            <mxPoint x="60" y="480" as="targetPoint" />
          </mxGeometry>
        </mxCell>
        <mxCell id="A8UlO8RGgryLHVH7YJOI-66" value="" style="endArrow=none;html=1;rounded=0;exitX=1;exitY=0.5;exitDx=0;exitDy=0;entryX=0.75;entryY=1;entryDx=0;entryDy=0;" edge="1" parent="1" source="A8UlO8RGgryLHVH7YJOI-26" target="A8UlO8RGgryLHVH7YJOI-55">
          <mxGeometry width="50" height="50" relative="1" as="geometry">
            <mxPoint x="40" y="540" as="sourcePoint" />
            <mxPoint x="90" y="490" as="targetPoint" />
          </mxGeometry>
        </mxCell>
        <mxCell id="A8UlO8RGgryLHVH7YJOI-67" value="Name" style="ellipse;whiteSpace=wrap;html=1;strokeWidth=1;" vertex="1" parent="1">
          <mxGeometry x="-120" y="525" width="80" height="30" as="geometry" />
        </mxCell>
        <mxCell id="A8UlO8RGgryLHVH7YJOI-68" value="&lt;u&gt;Healthcare ID&lt;/u&gt;" style="ellipse;whiteSpace=wrap;html=1;strokeWidth=1;" vertex="1" parent="1">
          <mxGeometry x="525.5" y="440" width="95" height="25" as="geometry" />
        </mxCell>
        <mxCell id="A8UlO8RGgryLHVH7YJOI-69" value="Credentials" style="ellipse;whiteSpace=wrap;html=1;strokeWidth=1;" vertex="1" parent="1">
          <mxGeometry x="490.5" y="480" width="80" height="40" as="geometry" />
        </mxCell>
        <mxCell id="A8UlO8RGgryLHVH7YJOI-70" value="" style="endArrow=none;html=1;rounded=0;exitX=0;exitY=0.5;exitDx=0;exitDy=0;entryX=1;entryY=0;entryDx=0;entryDy=0;" edge="1" parent="1" source="A8UlO8RGgryLHVH7YJOI-24" target="A8UlO8RGgryLHVH7YJOI-56">
          <mxGeometry width="50" height="50" relative="1" as="geometry">
            <mxPoint x="342.5" y="425" as="sourcePoint" />
            <mxPoint x="392.5" y="375" as="targetPoint" />
          </mxGeometry>
        </mxCell>
        <mxCell id="A8UlO8RGgryLHVH7YJOI-71" value="" style="endArrow=none;html=1;rounded=0;exitX=0;exitY=0.5;exitDx=0;exitDy=0;entryX=1;entryY=0.5;entryDx=0;entryDy=0;" edge="1" parent="1" source="A8UlO8RGgryLHVH7YJOI-68" target="A8UlO8RGgryLHVH7YJOI-56">
          <mxGeometry width="50" height="50" relative="1" as="geometry">
            <mxPoint x="342.5" y="425" as="sourcePoint" />
            <mxPoint x="392.5" y="375" as="targetPoint" />
          </mxGeometry>
        </mxCell>
        <mxCell id="A8UlO8RGgryLHVH7YJOI-72" value="" style="endArrow=none;html=1;rounded=0;exitX=0;exitY=0;exitDx=0;exitDy=0;entryX=0.75;entryY=1;entryDx=0;entryDy=0;" edge="1" parent="1" source="A8UlO8RGgryLHVH7YJOI-69" target="A8UlO8RGgryLHVH7YJOI-56">
          <mxGeometry width="50" height="50" relative="1" as="geometry">
            <mxPoint x="342.5" y="425" as="sourcePoint" />
            <mxPoint x="392.5" y="375" as="targetPoint" />
          </mxGeometry>
        </mxCell>
        <mxCell id="A8UlO8RGgryLHVH7YJOI-73" value="" style="endArrow=none;html=1;rounded=0;exitX=1;exitY=0.5;exitDx=0;exitDy=0;entryX=0;entryY=0.75;entryDx=0;entryDy=0;" edge="1" parent="1" source="A8UlO8RGgryLHVH7YJOI-67" target="A8UlO8RGgryLHVH7YJOI-55">
          <mxGeometry width="50" height="50" relative="1" as="geometry">
            <mxPoint x="60" y="640" as="sourcePoint" />
            <mxPoint x="110" y="590" as="targetPoint" />
          </mxGeometry>
        </mxCell>
        <mxCell id="A8UlO8RGgryLHVH7YJOI-75" value="Medical Practice" style="rounded=0;whiteSpace=wrap;html=1;shadow=0;strokeWidth=1;" vertex="1" parent="1">
          <mxGeometry x="15" y="700" width="70" height="30" as="geometry" />
        </mxCell>
        <mxCell id="A8UlO8RGgryLHVH7YJOI-76" value="" style="endArrow=none;html=1;rounded=0;exitX=0.5;exitY=0;exitDx=0;exitDy=0;entryX=0.5;entryY=1;entryDx=0;entryDy=0;" edge="1" parent="1" source="A8UlO8RGgryLHVH7YJOI-75" target="A8UlO8RGgryLHVH7YJOI-77">
          <mxGeometry width="50" height="50" relative="1" as="geometry">
            <mxPoint x="30" y="660" as="sourcePoint" />
            <mxPoint x="80" y="610" as="targetPoint" />
          </mxGeometry>
        </mxCell>
        <mxCell id="A8UlO8RGgryLHVH7YJOI-79" value="1" style="edgeLabel;html=1;align=center;verticalAlign=middle;resizable=0;points=[];" vertex="1" connectable="0" parent="A8UlO8RGgryLHVH7YJOI-76">
          <mxGeometry x="-0.7272" y="-3" relative="1" as="geometry">
            <mxPoint x="2" y="-15" as="offset" />
          </mxGeometry>
        </mxCell>
        <mxCell id="A8UlO8RGgryLHVH7YJOI-77" value="Associated with" style="rhombus;whiteSpace=wrap;html=1;shadow=0;strokeWidth=1;" vertex="1" parent="1">
          <mxGeometry x="7.5" y="600" width="85" height="70" as="geometry" />
        </mxCell>
        <mxCell id="A8UlO8RGgryLHVH7YJOI-81" value="&lt;u&gt;Name&lt;/u&gt;" style="ellipse;whiteSpace=wrap;html=1;strokeWidth=1;" vertex="1" parent="1">
          <mxGeometry x="-60" y="760" width="80" height="30" as="geometry" />
        </mxCell>
        <mxCell id="A8UlO8RGgryLHVH7YJOI-82" value="Phone Number" style="ellipse;whiteSpace=wrap;html=1;" vertex="1" parent="1">
          <mxGeometry x="75" y="760" width="90" height="30" as="geometry" />
        </mxCell>
        <mxCell id="A8UlO8RGgryLHVH7YJOI-83" value="" style="endArrow=none;html=1;rounded=0;exitX=0.5;exitY=0;exitDx=0;exitDy=0;entryX=0;entryY=1;entryDx=0;entryDy=0;" edge="1" parent="1" source="A8UlO8RGgryLHVH7YJOI-81" target="A8UlO8RGgryLHVH7YJOI-75">
          <mxGeometry width="50" height="50" relative="1" as="geometry">
            <mxPoint x="110" y="650" as="sourcePoint" />
            <mxPoint x="160" y="600" as="targetPoint" />
          </mxGeometry>
        </mxCell>
        <mxCell id="A8UlO8RGgryLHVH7YJOI-84" value="" style="endArrow=none;html=1;rounded=0;exitX=0.5;exitY=0;exitDx=0;exitDy=0;entryX=1;entryY=1;entryDx=0;entryDy=0;" edge="1" parent="1" source="A8UlO8RGgryLHVH7YJOI-82" target="A8UlO8RGgryLHVH7YJOI-75">
          <mxGeometry width="50" height="50" relative="1" as="geometry">
            <mxPoint x="110" y="650" as="sourcePoint" />
            <mxPoint x="160" y="600" as="targetPoint" />
          </mxGeometry>
        </mxCell>
        <mxCell id="A8UlO8RGgryLHVH7YJOI-86" value="M" style="endArrow=none;html=1;rounded=0;exitX=0.5;exitY=1;exitDx=0;exitDy=0;entryX=0.5;entryY=0;entryDx=0;entryDy=0;startArrow=none;shape=link;" edge="1" parent="1" source="A8UlO8RGgryLHVH7YJOI-87">
          <mxGeometry relative="1" as="geometry">
            <mxPoint x="230" y="430" as="sourcePoint" />
            <mxPoint x="260" y="550" as="targetPoint" />
          </mxGeometry>
        </mxCell>
        <mxCell id="A8UlO8RGgryLHVH7YJOI-87" value="Vaccinates" style="shape=rhombus;perimeter=rhombusPerimeter;whiteSpace=wrap;html=1;align=center;shadow=0;strokeWidth=1;" vertex="1" parent="1">
          <mxGeometry x="200" y="430" width="80" height="60" as="geometry" />
        </mxCell>
        <mxCell id="A8UlO8RGgryLHVH7YJOI-88" value="M" style="endArrow=none;html=1;rounded=0;exitX=0.75;exitY=1;exitDx=0;exitDy=0;entryX=0.5;entryY=0;entryDx=0;entryDy=0;" edge="1" parent="1" source="A8UlO8RGgryLHVH7YJOI-9" target="A8UlO8RGgryLHVH7YJOI-87">
          <mxGeometry relative="1" as="geometry">
            <mxPoint x="221.25" y="380" as="sourcePoint" />
            <mxPoint x="270" y="530" as="targetPoint" />
          </mxGeometry>
        </mxCell>
        <mxCell id="A8UlO8RGgryLHVH7YJOI-93" value="" style="endArrow=none;html=1;rounded=0;shape=link;exitX=0.5;exitY=0;exitDx=0;exitDy=0;entryX=1;entryY=1;entryDx=0;entryDy=0;" edge="1" parent="1" source="A8UlO8RGgryLHVH7YJOI-77" target="A8UlO8RGgryLHVH7YJOI-55">
          <mxGeometry width="50" height="50" relative="1" as="geometry">
            <mxPoint x="150" y="570" as="sourcePoint" />
            <mxPoint x="200" y="520" as="targetPoint" />
          </mxGeometry>
        </mxCell>
        <mxCell id="A8UlO8RGgryLHVH7YJOI-95" value="Patient" style="rounded=0;whiteSpace=wrap;html=1;shadow=0;strokeWidth=1;" vertex="1" parent="1">
          <mxGeometry x="215" y="560" width="75" height="30" as="geometry" />
        </mxCell>
      </root>
    </mxGraphModel>
  </diagram>
</mxfile>
